<svg
    width="52"
    height="52"
    viewBox="0 0 52 52"
    fill="none"
    xmlns="http://www.w3.org/2000/svg"
  >
    <path
      fill-rule="evenodd"
      clip-rule="evenodd"
      d="M26.0003 22.2488L23.6264 18.7578C23.5173 18.5973 23.3489 18.4868 23.1583 18.4505C22.9676 18.4142 22.7704 18.4552 22.6099 18.5643C22.4495 18.6734 22.3389 18.8418 22.3027 19.0325C22.2664 19.2231 22.3073 19.4203 22.4164 19.5808L24.8474 23.1559L11.667 27.4465L8.68883 23.0301L16.2414 20.5757C16.3337 20.5468 16.4194 20.4999 16.4935 20.4377C16.5675 20.3755 16.6285 20.2992 16.6729 20.2132C16.7173 20.1272 16.7442 20.0333 16.752 19.9369C16.7599 19.8405 16.7485 19.7435 16.7186 19.6515C16.6888 19.5595 16.6409 19.4743 16.5779 19.4009C16.5149 19.3275 16.4379 19.2674 16.3515 19.2239C16.265 19.1805 16.1708 19.1546 16.0744 19.1478C15.9779 19.141 15.881 19.1534 15.7893 19.1843L8.23673 21.6387C8.02113 21.7085 7.82474 21.8275 7.66311 21.9864C7.50147 22.1452 7.37903 22.3395 7.30546 22.5538C7.23149 22.7679 7.20831 22.9963 7.23777 23.2209C7.26722 23.4455 7.3485 23.6602 7.47518 23.8479L10.487 28.3126L7.05015 33.4079C6.92337 33.5957 6.84197 33.8105 6.81235 34.0352C6.78274 34.2598 6.80572 34.4883 6.87949 34.7026C6.95326 34.9169 7.07579 35.1111 7.23744 35.27C7.39909 35.4288 7.59542 35.5479 7.81097 35.6179L10.6377 36.536V41.8551C10.6377 42.8245 11.2734 43.6789 12.2018 43.9569L25.3697 47.9073C25.781 48.0309 26.2196 48.0309 26.6309 47.9073L39.7989 43.9569C40.251 43.8214 40.6473 43.5437 40.9291 43.1651C41.2108 42.7865 41.363 42.3271 41.3629 41.8551V36.536L44.1897 35.6179C44.4051 35.5478 44.6013 35.4286 44.7629 35.2697C44.9245 35.1109 45.0469 34.9167 45.1207 34.7025C45.1944 34.4882 45.2175 34.2598 45.1879 34.0351C45.1584 33.8105 45.0771 33.5958 44.9505 33.4079L41.5136 28.3126L44.5255 23.8479C44.7822 23.4675 44.8451 22.9876 44.6952 22.5538C44.6216 22.3395 44.4992 22.1452 44.3375 21.9864C44.1759 21.8275 43.9795 21.7085 43.7639 21.6387L30.5989 17.3605C30.2976 17.2627 29.9726 17.2652 29.6729 17.3679C29.3732 17.4705 29.1149 17.6677 28.9368 17.9297L26.0003 22.2488ZM25.9879 34.3816L22.6381 39.324C22.4604 39.5866 22.2021 39.7844 21.9021 39.8874C21.6022 39.9905 21.2769 39.9933 20.9753 39.8953L12.1008 37.0115V41.8551C12.1008 42.0125 12.1515 42.1657 12.2455 42.292C12.3395 42.4182 12.4716 42.5108 12.6224 42.556L25.7904 46.5064C25.8446 46.5227 25.9006 46.5325 25.9572 46.5356C25.9081 44.2627 25.9623 37.3107 25.9879 34.3816ZM11.6085 35.3129L21.4274 38.5032L24.8489 33.4554L11.6677 29.1788L8.26307 34.2258L11.5814 35.3041L11.6085 35.3129ZM40.4192 35.3041L43.7376 34.2258L40.3329 29.1788L27.1518 33.4554L30.5733 38.5032L40.3922 35.3129L40.4192 35.3041ZM26.0003 32.2908L38.2648 28.3112L26.0003 24.3191V32.2908ZM43.3118 23.0301L40.3337 27.4465L27.1532 23.1559L30.1468 18.7527L43.3118 23.0301ZM20.7814 23.4032C20.5735 23.123 20.389 22.8262 20.2298 22.5158C20.1418 22.3428 19.9887 22.2119 19.8042 22.1518C19.6197 22.0917 19.4189 22.1074 19.2459 22.1954C19.0729 22.2834 18.942 22.4365 18.8819 22.621C18.8218 22.8055 18.8375 23.0063 18.9255 23.1793C19.1113 23.5436 19.3366 23.9087 19.6036 24.2708C19.7201 24.4231 19.8917 24.5236 20.0815 24.5506C20.2713 24.5776 20.4642 24.5291 20.6186 24.4153C20.7729 24.3016 20.8765 24.1318 20.9069 23.9426C20.9374 23.7533 20.8923 23.5596 20.7814 23.4032ZM19.7119 20.4177C19.7192 20.1229 19.7624 19.8368 19.8414 19.5625C19.8678 19.4701 19.8758 19.3735 19.865 19.278C19.8541 19.1825 19.8245 19.0901 19.7779 19.0061C19.7313 18.9221 19.6686 18.848 19.5934 18.7882C19.5181 18.7284 19.4319 18.684 19.3395 18.6576C19.2472 18.6311 19.1505 18.6231 19.055 18.634C18.9595 18.6449 18.8672 18.6745 18.7831 18.7211C18.6991 18.7677 18.6251 18.8304 18.5653 18.9056C18.5055 18.9808 18.4611 19.0671 18.4346 19.1594C18.3214 19.5572 18.259 19.9677 18.2488 20.3811C18.2439 20.5751 18.3163 20.7631 18.4501 20.9038C18.5839 21.0444 18.768 21.1261 18.962 21.131C19.1561 21.1358 19.3441 21.0634 19.4847 20.9296C19.6253 20.7959 19.707 20.6117 19.7119 20.4177ZM20.837 17.9743C21.025 17.8002 21.2357 17.6393 21.4661 17.4937C21.6303 17.3902 21.7466 17.2257 21.7895 17.0364C21.8323 16.8472 21.7983 16.6486 21.6948 16.4845C21.5912 16.3204 21.4268 16.2041 21.2375 16.1612C21.0483 16.1183 20.8497 16.1524 20.6856 16.2559C20.3854 16.4445 20.1032 16.6605 19.8428 16.9011C19.7041 17.0338 19.6231 17.2158 19.6173 17.4077C19.6115 17.5996 19.6814 17.786 19.8119 17.9269C19.9423 18.0677 20.123 18.1516 20.3147 18.1605C20.5065 18.1694 20.6941 18.1025 20.837 17.9743ZM23.5577 16.7124C23.9438 16.6418 24.3345 16.5988 24.7267 16.5836C24.916 16.569 25.0922 16.4815 25.2181 16.3395C25.3441 16.1974 25.41 16.0121 25.402 15.8224C25.3939 15.6327 25.3125 15.4536 25.1749 15.3228C25.0373 15.192 24.8543 15.1197 24.6645 15.1212C24.1817 15.1417 23.7237 15.1937 23.2914 15.2734C23.1006 15.3087 22.9316 15.4184 22.8216 15.5783C22.7117 15.7382 22.6697 15.9352 22.705 16.126C22.7403 16.3169 22.85 16.4858 23.0099 16.5958C23.1698 16.7057 23.3668 16.7477 23.5577 16.7124ZM27.3705 16.6692C27.9945 16.6765 28.5754 16.6546 29.1145 16.607C29.306 16.5876 29.4821 16.4936 29.6047 16.3452C29.7273 16.1969 29.7865 16.0062 29.7695 15.8145C29.7525 15.6227 29.6606 15.4455 29.5137 15.3211C29.3669 15.1966 29.177 15.1351 28.9851 15.1498C28.4913 15.1929 27.9594 15.2134 27.3873 15.2061C27.1933 15.2039 27.0064 15.2788 26.8676 15.4144C26.7288 15.55 26.6496 15.7352 26.6474 15.9292C26.6451 16.1233 26.7201 16.3102 26.8557 16.449C26.9913 16.5878 27.1765 16.667 27.3705 16.6692ZM31.5192 16.1586C32.2434 15.9369 32.855 15.6531 33.3671 15.3275C33.4481 15.2759 33.5182 15.2088 33.5733 15.1301C33.6284 15.0514 33.6674 14.9626 33.6882 14.8688C33.709 14.775 33.7111 14.678 33.6944 14.5833C33.6777 14.4887 33.6426 14.3983 33.5909 14.3173C33.5393 14.2362 33.4722 14.1662 33.3935 14.1111C33.3148 14.056 33.226 14.0169 33.1321 13.9961C33.0383 13.9753 32.9413 13.9732 32.8467 13.9899C32.7521 14.0066 32.6617 14.0418 32.5806 14.0934C32.1164 14.3813 31.6154 14.6052 31.0912 14.7591C30.9056 14.8159 30.7502 14.944 30.6591 15.1154C30.568 15.2867 30.5487 15.4873 30.6054 15.6728C30.6622 15.8584 30.7903 16.0139 30.9617 16.1049C31.1331 16.196 31.3336 16.2153 31.5192 16.1586ZM35.2428 13.2799C35.5719 12.5962 35.7246 11.8409 35.6868 11.0831C35.6824 10.9871 35.659 10.8929 35.6182 10.806C35.5773 10.719 35.5197 10.641 35.4487 10.5763C35.3777 10.5116 35.2946 10.4615 35.2042 10.4289C35.1139 10.3963 35.018 10.3818 34.922 10.3863C34.826 10.3907 34.7319 10.4141 34.6449 10.4549C34.5579 10.4958 34.4799 10.5533 34.4152 10.6244C34.3505 10.6954 34.3004 10.7785 34.2678 10.8688C34.2352 10.9592 34.2207 11.0551 34.2252 11.1511C34.2515 11.6658 34.1484 12.1789 33.9252 12.6435C33.8506 12.8168 33.8457 13.0123 33.9117 13.1891C33.9776 13.3659 34.1093 13.5105 34.2793 13.5925C34.4492 13.6746 34.6443 13.688 34.8238 13.6297C35.0033 13.5715 35.1534 13.4462 35.2428 13.2799ZM25.2505 7.09756C25.7055 4.96435 27.5593 3.96578 28.8431 4.00089C30.1248 4.03601 30.8381 5.10188 29.0231 7.09756H30.0524C30.2464 7.09756 30.4325 7.17464 30.5697 7.31183C30.7069 7.44902 30.7839 7.6351 30.7839 7.82912C30.7839 8.02314 30.7069 8.20921 30.5697 8.3464C30.4325 8.4836 30.2464 8.56067 30.0524 8.56067H29.037C30.8344 10.5468 30.1212 11.6069 28.8431 11.6427C27.5622 11.6778 25.7136 10.6836 25.2534 8.56067H25.1539C24.9656 8.55224 24.7877 8.47149 24.6574 8.33522C24.5271 8.19895 24.4544 8.01766 24.4544 7.82912C24.4544 7.64057 24.5271 7.45928 24.6574 7.32301C24.7877 7.18674 24.9656 7.10599 25.1539 7.09756H25.2505ZM34.7768 8.49629C34.2435 7.77571 33.52 7.27387 32.7313 7.11219C32.5442 7.08051 32.352 7.12275 32.1954 7.22999C32.0388 7.33724 31.9299 7.50112 31.8918 7.68708C31.8536 7.87303 31.8892 8.06653 31.991 8.22678C32.0927 8.38702 32.2527 8.50149 32.4373 8.54604C32.8923 8.63895 33.2932 8.95132 33.6012 9.36757C33.6584 9.44476 33.7302 9.50993 33.8126 9.55936C33.895 9.60878 33.9863 9.64149 34.0814 9.65562C34.1764 9.66975 34.2733 9.66502 34.3665 9.64171C34.4597 9.61839 34.5474 9.57695 34.6246 9.51974C34.7018 9.46253 34.767 9.39067 34.8164 9.30828C34.8658 9.22589 34.8985 9.13456 34.9126 9.03953C34.9268 8.94449 34.9221 8.84761 34.8987 8.7544C34.8754 8.66119 34.834 8.57348 34.7768 8.49629Z"
      fill="#A4A4A4"
    />
  </svg>