<svg
  width="52"
  height="52"
  viewBox="0 0 52 52"
  fill="none"
  xmlns="http://www.w3.org/2000/svg"
>
  <path
    d="M22.4328 24.5902C22.2783 24.5154 21.982 24.388 21.6724 24.254C20.1255 23.5872 16.9798 22.2306 14.9399 20.6208C14.5606 23.8917 18.2676 28.2908 20.3934 29.0471C20.5585 28.5752 20.9299 27.8239 21.3198 27.0356C21.7669 26.1316 22.2274 25.1988 22.4328 24.5902Z"
    fill="#0F172A"
  />
  <path
    d="M24.4563 19.2019C23.6514 18.5493 15.377 11.7089 12.284 4C11.4246 4.86863 8.13031 8.32066 8.13031 10.1726C8.13031 12.2753 12.6702 19.5669 22.8887 23.6349C22.9722 23.4496 23.0662 23.2483 23.1648 23.0355C23.7541 21.7679 24.5544 20.0448 24.4563 19.2019Z"
    fill="#0F172A"
  />
  <path
    d="M26.2169 34.8904C25.1777 32.8417 25.8395 30.179 28.1835 26.9741C35.7012 18.1388 28.8934 10.9697 28.8214 10.9013C27.3937 9.54703 25.7578 8.86047 23.9591 8.86047C21.1886 8.86047 18.8285 10.5037 18.2488 10.9417C18.6405 11.5819 20.2883 14.1507 22.8309 16.3818C22.9827 16.3103 23.262 16.1791 23.6083 16.1791C24.2485 16.1791 24.8195 16.6134 25.3043 17.4711C26.1169 18.9088 24.9419 21.4487 23.4542 24.6645C21.5725 28.7316 19.2307 33.7929 20.8455 37.6701C22.7552 42.2553 27.3868 43.8899 31.0856 43.8899C32.045 43.8899 32.9747 43.7812 33.7896 43.5753C33.076 41.55 30.6637 38.1755 30.2119 37.5536C29.4892 37.5834 27.1979 36.8239 26.2169 34.8904Z"
    fill="#0F172A"
  />
  <path
    d="M37.0358 33.5823L40.8432 37.909C41.3711 36.5767 43.2766 30.8971 39.6595 25.9734C39.6334 25.9316 37.7558 23.0323 32.528 21.1235C32.3427 21.8201 31.6882 24.0187 30.3757 25.9289C31.7414 26.2834 37.293 28.0688 37.0358 33.5823Z"
    fill="#0F172A"
  />
  <path
    d="M26.8952 31.681C27.762 32.7064 35.2834 41.7353 36.8165 47.8102C37.0481 47.8702 37.6342 48 38.3786 48C40.2566 48 42.7295 47.2089 43.8696 43.451C43.605 42.7254 38.8872 37.3119 35.4283 33.343C32.8279 30.3592 30.561 27.7575 29.7992 26.7499C29.3016 27.186 27.7404 28.7394 26.8952 31.681Z"
    fill="#0F172A"
  />
</svg>