<svg
      width="240"
      height="240"
      viewBox="0 0 240 240"
      fill="none"
      xmlns="http://www.w3.org/2000/svg"
    >
      <path
        d="M102.489 113.079C101.73 112.712 100.275 112.086 98.7557 111.429C91.1617 108.155 75.7193 101.496 65.705 93.5932C63.8431 109.65 82.0413 131.246 92.4765 134.958C93.287 132.642 95.1107 128.954 97.0244 125.084C99.2195 120.646 101.48 116.067 102.489 113.079Z"
        fill="#0F172A"
      />
      <path
        d="M112.422 86.6274C108.471 83.4236 67.8507 49.8439 52.6672 12C48.448 16.2642 32.2762 33.2105 32.2762 42.3017C32.2762 52.6244 54.5629 88.4195 104.726 108.389C105.136 107.48 105.598 106.492 106.082 105.447C108.975 99.224 112.904 90.7655 112.422 86.6274Z"
        fill="#0F172A"
      />
      <path
        d="M121.065 163.644C115.963 153.586 119.212 140.515 130.719 124.782C167.624 81.4086 134.204 46.2146 133.851 45.8792C126.842 39.2308 118.811 35.8604 109.981 35.8604C96.3805 35.8604 84.7948 43.9272 81.949 46.0773C83.8717 49.2203 91.961 61.8304 104.443 72.7835C105.188 72.4323 106.559 71.7884 108.259 71.7884C111.402 71.7884 114.205 73.9204 116.585 78.1306C120.574 85.1887 114.806 97.657 107.502 113.444C98.2649 133.409 86.7692 158.256 94.6964 177.289C104.071 199.799 126.808 207.823 144.966 207.823C149.676 207.823 154.239 207.289 158.24 206.278C154.737 196.336 142.895 179.77 140.677 176.717C137.129 176.864 125.881 173.135 121.065 163.644Z"
        fill="#0F172A"
      />
      <path
        d="M174.176 157.223L192.867 178.462C195.458 171.922 204.813 144.041 187.056 119.869C186.928 119.665 177.71 105.431 152.047 96.0608C151.137 99.4807 147.924 110.274 141.481 119.651C148.185 121.391 175.439 130.156 174.176 157.223Z"
        fill="#0F172A"
      />
      <path
        d="M124.395 147.888C128.65 152.922 165.573 197.246 173.099 227.068C174.236 227.363 177.114 228 180.768 228C189.987 228 202.127 224.116 207.724 205.668C206.425 202.107 183.265 175.531 166.284 156.047C153.519 141.4 142.39 128.627 138.651 123.681C136.208 125.822 128.544 133.448 124.395 147.888Z"
        fill="#0F172A"
      />
    </svg>