<svg
      width="428"
      height="93"
      viewBox="0 0 428 93"
      fill="none"
      xmlns="http://www.w3.org/2000/svg"
    >
      <path
        d="M32.729 44.4504C32.505 44.3356 32.0756 44.1399 31.627 43.9343C29.385 42.9106 24.8259 40.8279 21.8693 38.3566C21.3196 43.3781 26.6923 50.1316 29.7732 51.2926C30.0124 50.5681 30.5508 49.4148 31.1158 48.2045C31.7639 46.8168 32.4313 45.3847 32.729 44.4504Z"
        fill="#0F172A"
      />
      <path
        d="M35.6616 36.1781C34.4951 35.1762 22.5028 24.6749 18.0201 12.84C16.7745 14.1736 12 19.4732 12 22.3162C12 25.5444 18.5798 36.7386 33.3897 42.9838C33.5107 42.6993 33.647 42.3902 33.7899 42.0635C34.644 40.1175 35.8039 37.4722 35.6616 36.1781Z"
        fill="#0F172A"
      />
      <path
        d="M38.2134 60.2633C36.7072 57.1181 37.6663 53.0303 41.0636 48.1102C51.9592 34.5461 42.0925 23.5399 41.9881 23.435C39.919 21.3559 37.548 20.3018 34.9411 20.3018C30.9257 20.3018 27.5052 22.8246 26.665 23.497C27.2327 24.4799 29.6209 28.4234 33.306 31.8487C33.526 31.7389 33.9308 31.5375 34.4326 31.5375C35.3605 31.5375 36.1881 32.2043 36.8906 33.5209C38.0685 35.7282 36.3655 39.6274 34.2093 44.5644C31.482 50.8082 28.0881 58.5784 30.4285 64.5307C33.1963 71.5701 39.909 74.0794 45.2697 74.0794C46.6602 74.0794 48.0076 73.9125 49.1887 73.5964C48.1545 70.4872 44.6582 65.3066 44.0035 64.3518C42.9559 64.3976 39.6351 63.2317 38.2134 60.2633Z"
        fill="#0F172A"
      />
      <path
        d="M53.8934 58.2552L59.4117 64.8975C60.1767 62.8522 62.9385 54.1329 57.6961 46.5739C57.6582 46.5098 54.937 42.0586 47.3602 39.1282C47.0916 40.1977 46.1431 43.5731 44.2408 46.5056C46.2202 47.0498 54.2663 49.7908 53.8934 58.2552Z"
        fill="#0F172A"
      />
      <path
        d="M39.1965 55.3361C40.4527 56.9104 51.3537 70.7717 53.5757 80.0979C53.9114 80.1901 54.7608 80.3894 55.8396 80.3894C58.5615 80.3894 62.1456 79.1748 63.798 73.4056C63.4144 72.2918 56.5768 63.9808 51.5637 57.8877C47.7949 53.307 44.5093 49.3127 43.4053 47.7659C42.6841 48.4354 40.4215 50.8202 39.1965 55.3361Z"
        fill="#0F172A"
      />
      <path
        d="M87.0981 72.3034C86.4725 74.8742 84.3111 76.7399 81.7971 77.4565C81.0008 77.6612 80.0111 77.7409 78.8053 77.7409H71.798L73.5043 70.324H72.2074L74.4257 60.7686C76.3937 60.7686 82.3658 60.3932 84.3792 61.1326C86.0855 61.8037 86.8932 63.2143 86.4724 65.0571C86.1538 66.4335 85.3234 67.5028 84.2086 68.3333C85.1414 68.7997 85.6874 69.505 85.8694 70.324H87.1207C87.2686 70.961 87.2346 71.5754 87.0981 72.3034ZM81.2742 72.2351C81.6382 70.654 80.0798 70.961 79.056 70.961L78.4417 73.5888C79.7044 73.5888 80.9443 73.7367 81.2742 72.2351ZM80.5917 66.0924C80.8533 65.0345 79.9774 64.9093 79.1471 64.9093L78.7148 66.9683C79.3518 67.0252 80.4211 66.9342 80.5917 66.0924ZM107.904 70.0056L107.608 71.4275C106.573 75.9778 103.286 78.0937 98.7467 78.0937C94.1737 78.0937 91.8872 75.9096 92.8997 71.4389L93.2295 70.0056H92.2057L94.3102 60.7118H100.078L97.9618 70.0056H98.9856L98.6898 71.2C98.4623 72.2125 98.2007 73.805 99.725 73.805C101.135 73.805 101.647 72.3603 101.92 71.2L102.194 70.0056H101.136L103.251 60.7118H109.019L106.903 70.0056H107.904ZM120.042 70.3696L118.336 77.7865H112.58L114.286 70.3696H113.126L115.355 60.7686H121.1L118.893 70.3696H120.042ZM126.06 70.3241H125.013L127.197 60.7913H132.908L130.701 70.3241H131.759L131.008 73.4296H137.322L136.343 77.7295H124.342L126.06 70.3241ZM157.104 70.3241H158.378C157.138 73.987 153.976 76.865 150.131 77.5362C147.299 77.9343 144.102 77.7409 141.224 77.7409L142.93 70.324H141.667L143.863 60.7686C146.138 60.7686 151.894 60.416 154.169 61.3829C157.32 62.7366 158.105 66.1834 157.377 69.2547C157.32 69.6188 157.229 69.9828 157.104 70.3241ZM148.64 64.966L147.412 70.3238H148.674L147.935 73.509C150.403 73.509 151.78 72.5762 152.542 70.3238H151.279C151.404 70.0167 151.495 69.6527 151.598 69.2204C152.303 66.2741 151.439 64.966 148.64 64.966ZM193.369 72.3034C192.743 74.8742 190.581 76.7399 188.067 77.4565C187.271 77.6612 186.282 77.7409 185.076 77.7409H178.068L179.775 70.324H178.478L180.696 60.7686C182.664 60.7686 188.636 60.3932 190.65 61.1326C192.356 61.8037 193.164 63.2143 192.743 65.0571C192.424 66.4335 191.594 67.5028 190.479 68.3333C191.412 68.7997 191.958 69.505 192.14 70.324H193.391C193.539 70.961 193.505 71.5754 193.369 72.3034ZM187.545 72.2351C187.909 70.654 186.35 70.961 185.326 70.961L184.712 73.5888C185.975 73.5888 187.215 73.7367 187.545 72.2351ZM186.862 66.0924C187.124 65.0345 186.248 64.9093 185.417 64.9093L184.985 66.9683C185.622 67.0252 186.691 66.9342 186.862 66.0924ZM199.136 70.3696H197.976L200.206 60.7686H212.389L211.411 65.08H204.915L204.574 66.5361H210.546L209.67 70.3696H210.83L210.728 70.8246H204.745L204.142 73.4866H210.614L209.636 77.7865H197.429L199.136 70.3696ZM227.587 70.0056L227.029 70.7222L225.414 77.7865H219.681L221.262 70.9043C221.171 70.6199 221.068 70.3128 220.966 70.0057H219.942C218.884 66.9343 217.633 63.7605 216.734 60.7118H223.173L224.515 65.0232C225.562 63.5899 226.642 62.1452 227.689 60.7118H233.98L226.563 70.0057L227.587 70.0056ZM251.635 69.4027C251.544 69.7667 251.442 70.1307 251.305 70.5061H252.545C251.1 75.0222 247.426 78.2984 242.387 78.2984C237.188 78.2984 235.163 75.0222 235.823 70.5061H234.617C234.663 70.1307 234.719 69.7667 234.799 69.4027C236.005 64.204 239.77 60.4842 245.242 60.4842C250.6 60.4842 252.807 64.2382 251.635 69.4027ZM246.64 70.5061H245.411C245.525 70.1307 245.639 69.7667 245.719 69.3799C247.163 63.1348 242.124 63.3168 240.713 69.4027C240.634 69.8008 240.577 70.1649 240.52 70.5061H241.748C241.157 75.2611 245.036 75.1587 246.64 70.5061ZM273.225 70.3241L271.53 77.7295H266.241L263.988 70.3241H263.727L262.009 77.7295H256.651L258.369 70.3241H257.334L259.529 60.7913H265.774L267.617 66.7749L269.016 60.7913H274.397L272.19 70.3241H273.225ZM293.816 70.3241H295.09C293.85 73.987 290.687 76.865 286.842 77.5362C284.01 77.9343 280.813 77.7409 277.935 77.7409L279.642 70.324H278.379L280.574 60.7686C282.849 60.7686 288.605 60.416 290.881 61.3829C294.032 62.7366 294.817 66.1834 294.089 69.2547C294.032 69.6188 293.941 69.9828 293.816 70.3241ZM285.352 64.966L284.123 70.3238H285.386L284.646 73.509C287.115 73.509 288.491 72.5762 289.253 70.3238H287.991C288.116 70.0167 288.207 69.6527 288.309 69.2204C289.015 66.2741 288.15 64.966 285.352 64.966ZM316.498 70.3241H315.451L317.635 60.7913H323.346L321.139 70.3241H322.197L321.446 73.4296H327.76L326.781 77.7295H314.78L316.498 70.3241ZM339.249 70.3696L337.543 77.7865H331.787L333.493 70.3696H332.333L334.562 60.7686H340.307L338.1 70.3696H339.249ZM363.638 70.3241L361.909 77.7295H356.221L357.711 71.4161C357.131 72.292 356.551 73.1565 356.016 74.0325H352L351.511 71.3934L350.021 77.7296H344.572L346.256 70.3242H345.232L347.427 60.7915H353.468L354.708 66.8547C356.039 64.8525 357.37 62.8277 358.735 60.7915H364.775L362.58 70.3242L363.638 70.3241ZM376.151 70.3696L374.445 77.7865H368.689L370.395 70.3696H369.235L371.465 60.7686H377.209L375.002 70.3696H376.151ZM391.429 70.0056L389.7 77.7865H383.932L385.707 70.0056H384.672L385.82 65.0232H381.27L382.271 60.7118H397.037L396.07 65.0232H391.531L390.416 70.0056H391.429ZM414.567 70.0056C415.226 72.3945 413.247 75.2156 411.415 76.4555C407.821 78.8103 403.077 78.4348 399.402 76.5465L400.472 71.8143H402.235C402.462 74.26 407.934 75.2725 408.491 72.8608C408.764 71.6664 404.476 71.3365 403.043 70.2103C402.963 70.1421 402.872 70.0738 402.804 70.0056H401.757C400.62 68.9363 400.517 67.5143 400.847 66.0355C402.235 59.9723 410.471 59.3694 415.226 61.7697L414.168 66.3768H412.394C412.507 64.6477 407.275 63.4647 406.785 65.5464C406.456 67.1617 411.757 66.684 413.224 69.2434C413.349 69.4709 413.451 69.7439 413.52 70.0056L414.567 70.0056Z"
        fill="#0F172A"
      />
      <g clip-path="url(#clip0_14_3)">
        <path
          d="M87.2813 36.1573L83.741 52.4583H71.798L75.3383 36.1573H72.9308L77.5571 15.0559H89.4764L84.8975 36.1573H87.2813ZM124.244 36.0572L120.727 52.3331H109.752L105.078 36.0572H104.535L100.971 52.3331H89.8543L93.4183 36.0572H91.2705L95.8259 15.1059H108.784L112.607 28.2566L115.511 15.1059H126.675L122.096 36.0572H124.244ZM150.702 36.1573H153.062L152.756 37.6824H140.576L137.366 52.4583H125.494L129.082 36.1573H126.674L131.277 15.0559H156.343L154.266 24.5316H141.072L140.246 28.2067H152.401L150.702 36.1573ZM168.593 36.1573L165.053 52.4583H153.11L156.65 36.1573H154.243L158.869 15.0559H170.788L166.209 36.1573H168.593ZM205.556 36.0572L202.039 52.3331H191.063L186.39 36.0572H185.847L182.283 52.3331H171.166L174.73 36.0572H172.582L177.138 15.1059H190.096L193.919 28.2566L196.823 15.1059H207.987L203.408 36.0572H205.556ZM222.715 36.1573L219.174 52.4583H207.231L210.772 36.1573H208.364L212.99 15.0559H224.91L220.331 36.1573H222.715ZM246.058 35.3572L242.47 52.4583H230.504L234.186 35.3572H232.038L234.422 24.4067H224.98L227.058 14.931H257.695L255.688 24.4067H246.271L243.958 35.3572H246.058ZM257.812 36.1573H255.405L260.031 15.0559H285.31L283.28 24.5316H269.802L269.094 27.7318H281.486L279.669 36.1573H282.076L281.864 37.1574H269.449L268.198 43.0078H281.628L279.598 52.4584H254.271L257.812 36.1573Z"
          fill="#0F172A"
        />
        <path
          d="M331.154 33.7187C330.973 34.4855 330.769 35.2523 330.498 36.0432H332.964C330.091 45.5569 322.783 52.4584 312.761 52.4584C302.423 52.4584 298.396 45.5569 299.708 36.0432H297.31C297.4 35.2523 297.513 34.4855 297.672 33.7187C300.07 22.7672 307.558 14.931 318.439 14.931C329.095 14.931 333.484 22.8391 331.154 33.7187ZM321.22 36.0432H318.777C319.003 35.2524 319.229 34.4856 319.388 33.6708C322.261 20.5148 312.239 20.8981 309.433 33.7187C309.275 34.5575 309.162 35.3243 309.049 36.0432H311.492C310.316 46.06 318.03 45.8443 321.22 36.0432ZM366.083 35.6597L362.712 51.26H352.193L347.713 35.6597H347.193L343.777 51.26H333.121L336.537 35.6597H334.479L338.845 15.5781H351.265L354.93 28.183L357.713 15.5781H368.413L364.024 35.6597H366.083ZM370.675 35.7556H368.368L372.802 15.5302H397.031L395.086 24.6126H382.168L381.489 27.6799H393.366L391.624 35.7556H393.932L393.728 36.7142H381.829L380.63 42.3218H393.502L391.557 51.3801H367.281L370.675 35.7556Z"
          fill="#0F172A"
        />
      </g>
      <defs>
        <clipPath id="clip0_14_3">
          <rect
            width="343.428"
            height="37.5274"
            fill="white"
            transform="translate(71.798 14.931)"
          />
        </clipPath>
      </defs>
    </svg>